<?xml version="1.0" encoding="UTF-8"?>
<svg xmlns="http://www.w3.org/2000/svg" xmlns:xlink="http://www.w3.org/1999/xlink" width="501.3pt" height="141.6pt" viewBox="0 0 501.3 141.6" version="1.1">
<defs>
<clipPath id="clip1">
  <path d="M 474 62 L 501.300781 62 L 501.300781 111 L 474 111 Z M 474 62 "/>
</clipPath>
</defs>
<g id="surface1">
<path style=" stroke:none;fill-rule:evenodd;fill:rgb(0%,63.867188%,70.506287%);fill-opacity:1;" d="M 56.367188 20.679688 C 63.480469 20.679688 69.246094 26.445313 69.246094 33.558594 C 69.246094 40.671875 63.480469 46.4375 56.367188 46.4375 C 49.253906 46.4375 43.488281 40.671875 43.488281 33.558594 C 43.488281 26.445313 49.253906 20.679688 56.367188 20.679688 Z M 56.367188 20.679688 "/>
<path style=" stroke:none;fill-rule:evenodd;fill:rgb(45.483398%,68.943787%,84.375%);fill-opacity:1;" d="M 48.414063 59.246094 C 55.523438 59.246094 61.289063 65.011719 61.289063 72.125 C 61.289063 79.234375 55.523438 85 48.414063 85 C 41.300781 85 35.535156 79.234375 35.535156 72.125 C 35.535156 65.011719 41.300781 59.246094 48.414063 59.246094 Z M 48.414063 59.246094 "/>
<path style=" stroke:none;fill-rule:evenodd;fill:rgb(0%,44.309998%,70.117188%);fill-opacity:1;" d="M 54.480469 94.574219 C 61.59375 94.574219 67.359375 100.339844 67.359375 107.453125 C 67.359375 114.566406 61.59375 120.332031 54.480469 120.332031 C 47.367188 120.332031 41.601563 114.566406 41.601563 107.453125 C 41.601563 100.339844 47.367188 94.574219 54.480469 94.574219 Z M 54.480469 94.574219 "/>
<path style=" stroke:none;fill-rule:evenodd;fill:rgb(0%,63.867188%,70.506287%);fill-opacity:1;" d="M 16.410156 5.628906 C 17.179688 2.125 20.648438 -0.0898438 24.15625 0.679688 C 27.660156 1.449219 29.875 4.917969 29.105469 8.421875 C 26.246094 21.414063 28.390625 31.527344 33.347656 38.925781 C 37.183594 44.65625 42.753906 48.902344 49.015625 51.6875 C 55.433594 54.542969 62.550781 55.855469 69.308594 55.671875 C 78.488281 55.421875 86.808594 52.425781 91.332031 46.789063 C 93.574219 44 97.65625 43.554688 100.445313 45.796875 C 103.234375 48.042969 103.679688 52.125 101.4375 54.914063 C 94.425781 63.648438 82.445313 68.273438 69.613281 68.621094 C 67.441406 68.679688 65.238281 68.617188 63.023438 68.429688 C 61.378906 61.894531 55.460938 57.054688 48.410156 57.054688 C 44.59375 57.054688 41.105469 58.476563 38.449219 60.820313 C 32.230469 57.207031 26.722656 52.320313 22.582031 46.136719 C 15.753906 35.945313 12.707031 22.449219 16.410156 5.628906 Z M 16.410156 5.628906 "/>
<path style=" stroke:none;fill-rule:evenodd;fill:rgb(45.483398%,68.943787%,84.375%);fill-opacity:1;" d="M 1.503906 73.636719 C 0.015625 70.6875 1.199219 67.089844 4.152344 65.601563 C 7.101563 64.113281 10.703125 65.296875 12.191406 68.25 C 15.695313 75.191406 20.261719 80.308594 25.425781 83.804688 C 31.457031 87.890625 38.382813 89.832031 45.425781 89.941406 C 52.601563 90.054688 59.910156 88.269531 66.5625 84.914063 C 73.628906 81.34375 79.902344 76.023438 84.425781 69.34375 C 86.277344 66.613281 89.992188 65.898438 92.722656 67.75 C 95.453125 69.601563 96.167969 73.316406 94.316406 76.046875 C 88.609375 84.472656 80.761719 91.152344 71.953125 95.601563 C 70.320313 96.425781 68.648438 97.175781 66.949219 97.84375 C 64.074219 94.113281 59.558594 91.710938 54.480469 91.710938 C 47.878906 91.710938 42.226563 95.773438 39.886719 101.535156 C 32.460938 100.640625 25.226563 98.101563 18.722656 93.695313 C 11.917969 89.085938 5.96875 82.480469 1.503906 73.636719 Z M 1.503906 73.636719 "/>
<path style=" stroke:none;fill-rule:evenodd;fill:rgb(0%,44.309998%,70.117188%);fill-opacity:1;" d="M 23.757813 136.191406 C 20.636719 135.105469 18.988281 131.695313 20.078125 128.574219 C 21.164063 125.457031 24.574219 123.808594 27.691406 124.894531 C 31.992188 126.390625 36.046875 127.347656 39.847656 127.835938 C 51.03125 129.265625 60.242188 126.675781 67.269531 121.886719 C 74.3125 117.089844 79.238281 110.082031 81.808594 102.703125 C 82.671875 100.222656 83.261719 97.722656 83.578125 95.273438 C 83.992188 92 86.980469 89.679688 90.257813 90.09375 C 93.53125 90.507813 95.851563 93.5 95.4375 96.773438 C 95.011719 100.082031 94.230469 103.402344 93.105469 106.640625 C 89.746094 116.292969 83.277344 125.46875 74.019531 131.777344 C 64.742188 138.097656 52.738281 141.535156 38.347656 139.695313 C 33.703125 139.101563 28.832031 137.960938 23.757813 136.191406 Z M 23.757813 136.191406 "/>
<path style=" stroke:none;fill-rule:evenodd;fill:rgb(0%,63.867188%,70.506287%);fill-opacity:1;" d="M 287.128906 95.542969 L 297.316406 94.601563 C 297.929688 97.765625 299.160156 100.074219 301.027344 101.558594 C 302.890625 103.046875 305.410156 103.78125 308.574219 103.78125 C 311.921875 103.78125 314.453125 103.125 316.148438 101.804688 C 317.847656 100.488281 318.703125 98.949219 318.703125 97.183594 C 318.703125 96.042969 318.339844 95.082031 317.632813 94.28125 C 316.921875 93.488281 315.667969 92.792969 313.886719 92.214844 C 312.667969 91.8125 309.902344 91.121094 305.566406 90.113281 C 299.988281 88.820313 296.074219 87.234375 293.824219 85.347656 C 290.65625 82.699219 289.078125 79.472656 289.078125 75.664063 C 289.078125 73.21875 289.824219 70.917969 291.308594 68.785156 C 292.800781 66.652344 294.945313 65.03125 297.75 63.917969 C 300.554688 62.800781 303.929688 62.242188 307.902344 62.242188 C 314.367188 62.242188 319.246094 63.570313 322.507813 66.238281 C 325.785156 68.90625 327.492188 72.460938 327.664063 76.914063 L 317.1875 77.25 C 316.742188 74.769531 315.789063 72.996094 314.332031 71.910156 C 312.875 70.828125 310.683594 70.28125 307.769531 70.28125 C 304.757813 70.28125 302.398438 70.863281 300.699219 72.023438 C 299.605469 72.773438 299.050781 73.765625 299.050781 75.015625 C 299.050781 76.15625 299.566406 77.125 300.605469 77.929688 C 301.917969 78.96875 305.105469 80.042969 310.175781 81.160156 C 315.246094 82.265625 318.992188 83.425781 321.414063 84.609375 C 323.84375 85.804688 325.746094 87.421875 327.121094 89.488281 C 328.492188 91.554688 329.179688 94.101563 329.179688 97.128906 C 329.179688 99.875 328.359375 102.453125 326.710938 104.855469 C 325.0625 107.253906 322.738281 109.042969 319.726563 110.203125 C 316.714844 111.375 312.960938 111.957031 308.46875 111.957031 C 301.929688 111.957031 296.90625 110.5625 293.402344 107.757813 C 289.898438 104.964844 287.816406 100.890625 287.128906 95.542969 Z M 287.128906 95.542969 "/>
<path style=" stroke:none;fill-rule:evenodd;fill:rgb(100%,100%,100%);fill-opacity:1;" d="M 450.050781 137.652344 L 438.070313 137.652344 L 438.070313 120.203125 L 450.050781 120.203125 L 450.050781 123.585938 L 442.351563 123.585938 L 442.351563 126.585938 L 449.503906 126.585938 L 449.503906 129.972656 L 442.351563 129.972656 L 442.351563 134.265625 L 450.050781 134.265625 Z M 469.925781 125.707031 C 469.925781 126.488281 469.796875 127.25 469.539063 128 C 469.277344 128.742188 468.910156 129.371094 468.425781 129.878906 C 467.765625 130.566406 467.035156 131.082031 466.222656 131.433594 C 465.414063 131.789063 464.402344 131.964844 463.199219 131.964844 L 460.542969 131.964844 L 460.542969 137.652344 L 456.265625 137.652344 L 456.265625 120.203125 L 463.289063 120.203125 C 464.34375 120.203125 465.226563 120.300781 465.953125 120.492188 C 466.671875 120.683594 467.316406 120.96875 467.867188 121.351563 C 468.535156 121.8125 469.046875 122.402344 469.398438 123.121094 C 469.75 123.839844 469.925781 124.699219 469.925781 125.707031 Z M 465.484375 125.816406 C 465.484375 125.324219 465.359375 124.902344 465.109375 124.546875 C 464.859375 124.195313 464.570313 123.949219 464.242188 123.808594 C 463.796875 123.621094 463.367188 123.515625 462.949219 123.496094 C 462.53125 123.476563 461.972656 123.46875 461.273438 123.46875 L 460.542969 123.46875 L 460.542969 128.675781 L 461.757813 128.675781 C 462.480469 128.675781 463.070313 128.628906 463.539063 128.535156 C 464.003906 128.445313 464.398438 128.253906 464.714844 127.976563 C 464.984375 127.726563 465.183594 127.425781 465.304688 127.082031 C 465.425781 126.734375 465.484375 126.3125 465.484375 125.816406 Z M 488.816406 132.167969 C 488.816406 133.882813 488.125 135.28125 486.742188 136.351563 C 485.363281 137.425781 483.488281 137.964844 481.121094 137.964844 C 479.75 137.964844 478.554688 137.835938 477.539063 137.582031 C 476.515625 137.332031 475.5625 137.007813 474.675781 136.621094 L 474.675781 132.441406 L 475.144531 132.441406 C 476.023438 133.183594 477.011719 133.75 478.097656 134.152344 C 479.191406 134.546875 480.238281 134.746094 481.246094 134.746094 C 481.507813 134.746094 481.84375 134.722656 482.269531 134.675781 C 482.691406 134.632813 483.03125 134.550781 483.300781 134.445313 C 483.625 134.300781 483.894531 134.125 484.105469 133.914063 C 484.316406 133.703125 484.421875 133.386719 484.421875 132.976563 C 484.421875 132.589844 484.269531 132.261719 483.960938 131.984375 C 483.65625 131.707031 483.203125 131.496094 482.613281 131.347656 C 481.988281 131.191406 481.332031 131.042969 480.636719 130.90625 C 479.945313 130.773438 479.292969 130.59375 478.6875 130.386719 C 477.292969 129.910156 476.296875 129.261719 475.683594 128.449219 C 475.074219 127.632813 474.765625 126.621094 474.765625 125.40625 C 474.765625 123.785156 475.457031 122.460938 476.839844 121.429688 C 478.21875 120.402344 479.996094 119.890625 482.167969 119.890625 C 483.257813 119.890625 484.332031 120.003906 485.394531 120.222656 C 486.460938 120.449219 487.378906 120.726563 488.15625 121.0625 L 488.15625 125.074219 L 487.699219 125.074219 C 487.035156 124.515625 486.214844 124.046875 485.253906 123.671875 C 484.285156 123.296875 483.296875 123.105469 482.292969 123.105469 C 481.9375 123.105469 481.582031 123.132813 481.234375 123.183594 C 480.878906 123.234375 480.542969 123.328125 480.214844 123.46875 C 479.929688 123.585938 479.679688 123.761719 479.472656 124 C 479.265625 124.234375 479.160156 124.507813 479.160156 124.8125 C 479.160156 125.269531 479.328125 125.625 479.664063 125.871094 C 479.996094 126.117188 480.621094 126.339844 481.546875 126.542969 C 482.15625 126.675781 482.742188 126.808594 483.300781 126.929688 C 483.859375 127.054688 484.460938 127.226563 485.105469 127.449219 C 486.371094 127.882813 487.304688 128.480469 487.910156 129.230469 C 488.511719 129.984375 488.816406 130.964844 488.816406 132.167969 Z M 488.816406 132.167969 "/>
<path style=" stroke:none;fill-rule:evenodd;fill:rgb(0%,44.309998%,70.117188%);fill-opacity:1;" d="M 274.023438 110.46875 L 284.09375 110.46875 L 284.09375 63.722656 L 274.023438 63.722656 Z M 274.023438 110.46875 "/>
<path style=" stroke:none;fill-rule:evenodd;fill:rgb(0%,44.309998%,70.117188%);fill-opacity:1;" d="M 274.023438 56.355469 L 284.09375 56.355469 L 284.09375 46.511719 L 274.023438 46.511719 Z M 274.023438 56.355469 "/>
<path style=" stroke:none;fill-rule:evenodd;fill:rgb(0%,44.309998%,70.117188%);fill-opacity:1;" d="M 153.707031 46.738281 L 153.707031 55.457031 L 120.070313 55.457031 L 120.070313 72.949219 L 149.769531 72.949219 L 149.769531 81.667969 L 120.070313 81.667969 L 120.070313 110.46875 L 110 110.46875 L 110 54.78125 C 110 50.355469 113.621094 46.738281 118.042969 46.738281 Z M 153.707031 46.738281 "/>
<path style=" stroke:none;fill-rule:evenodd;fill:rgb(0%,63.867188%,70.506287%);fill-opacity:1;" d="M 381.265625 64.175781 L 391.332031 64.175781 L 391.332031 70.671875 C 391.332031 70.671875 394.597656 62.234375 406.238281 62.402344 C 406.238281 62.402344 419.34375 62.121094 421.425781 72.191406 C 421.425781 72.191406 422.15625 75.285156 422.15625 79.925781 L 422.15625 110.46875 L 412.089844 110.46875 L 412.089844 79.925781 C 412.089844 79.925781 412.765625 70.953125 403.875 70.558594 C 403.875 70.558594 393.804688 69.660156 391.332031 81.527344 L 391.332031 110.46875 L 381.265625 110.46875 Z M 381.265625 64.175781 "/>
<path style=" stroke:none;fill-rule:evenodd;fill:rgb(0%,44.309998%,70.117188%);fill-opacity:1;" d="M 267.210938 79.082031 L 267.222656 79.082031 L 267.222656 110.46875 L 257.15625 110.46875 L 257.15625 79.925781 L 257.148438 79.925781 C 257.148438 79.925781 257.152344 79.878906 257.15625 79.800781 L 257.15625 79.167969 C 257.085938 77 256.242188 70.882813 248.9375 70.558594 C 248.9375 70.558594 243.449219 69.121094 240.207031 75.261719 C 239.816406 75.996094 239.78125 77.175781 239.527344 78.398438 C 239.699219 89.875 239.65625 99.792969 239.65625 110.46875 L 229.699219 110.46875 L 229.699219 76.351563 C 229.699219 72.464844 224.316406 70.699219 221.152344 70.558594 C 221.152344 70.558594 213.332031 69.660156 210.855469 81.527344 L 210.855469 110.46875 L 200.789063 110.46875 L 200.789063 64.175781 L 210.855469 64.175781 L 210.855469 70.671875 C 211.808594 71.304688 213.636719 63.414063 223.511719 62.402344 C 223.511719 62.402344 235.261719 62.152344 238.277344 70.675781 L 238.644531 70.671875 C 239.597656 71.304688 241.425781 63.414063 251.300781 62.402344 C 251.300781 62.402344 264.40625 62.121094 266.488281 72.191406 C 266.488281 72.191406 267.128906 74.914063 267.210938 79.082031 Z M 267.210938 79.082031 "/>
<g clip-path="url(#clip1)" clip-rule="nonzero">
<path style=" stroke:none;fill-rule:evenodd;fill:rgb(0%,63.867188%,70.506287%);fill-opacity:1;" d="M 474.636719 64.175781 L 484.707031 64.175781 L 484.707031 71.066406 C 484.707031 71.066406 487.238281 61.503906 501.300781 62.628906 L 501.300781 72.640625 C 501.300781 72.640625 492.1875 70.335938 488.8125 75.847656 C 488.8125 75.847656 486.84375 77.195313 484.707031 86.535156 L 484.707031 110.46875 L 474.636719 110.46875 Z M 474.636719 64.175781 "/>
</g>
<path style=" stroke:none;fill-rule:evenodd;fill:rgb(0%,44.309998%,70.117188%);fill-opacity:1;" d="M 163.300781 78.011719 C 163.300781 78.011719 164.988281 69.320313 173.59375 69.714844 C 173.59375 69.714844 183.832031 69.378906 183.550781 78.011719 C 183.550781 78.011719 181.972656 83.15625 174.4375 82.875 C 174.4375 82.875 159.699219 83.214844 155.929688 87.882813 C 155.929688 87.882813 151.542969 90.808594 151.878906 97.390625 C 151.878906 97.390625 151.207031 112.015625 167.347656 111.058594 C 167.347656 111.058594 177.417969 111.171875 183.269531 105.488281 C 184.746094 104.996094 183.746094 115.160156 197.78125 110.214844 L 197.78125 103.238281 C 196.1875 103.621094 194.667969 103.585938 193.222656 103.070313 C 193.222656 103.070313 192.378906 102.507813 192.492188 100.484375 L 192.773438 74.890625 C 192.773438 74.890625 193.054688 69.433594 187.148438 65.609375 C 176.933594 58.3125 154.050781 61.511719 153.625 78.011719 Z M 161.742188 95.734375 C 162.15625 93.632813 163.96875 89.921875 171.539063 89.203125 C 171.539063 89.203125 178.851563 88.980469 182.339844 87.179688 C 182.339844 87.179688 183.578125 98.65625 178.964844 101.46875 C 178.964844 101.46875 177.277344 102.953125 173.378906 103.308594 C 168.492188 103.753906 160.464844 102.242188 161.742188 95.734375 Z M 161.742188 95.734375 "/>
<path style=" stroke:none;fill-rule:evenodd;fill:rgb(0%,63.867188%,70.506287%);fill-opacity:1;" d="M 344.199219 78.011719 C 344.199219 78.011719 345.886719 69.320313 354.492188 69.714844 C 354.492188 69.714844 364.730469 69.378906 364.449219 78.011719 C 364.449219 78.011719 362.871094 83.15625 355.335938 82.875 C 355.335938 82.875 340.597656 83.214844 336.828125 87.882813 C 336.828125 87.882813 332.441406 90.808594 332.777344 97.390625 C 332.777344 97.390625 332.105469 112.015625 348.246094 111.058594 C 348.246094 111.058594 358.316406 111.171875 364.167969 105.488281 C 365.644531 104.996094 364.644531 115.160156 378.679688 110.214844 L 378.679688 103.238281 C 377.085938 103.621094 375.566406 103.585938 374.121094 103.070313 C 374.121094 103.070313 373.277344 102.507813 373.390625 100.484375 L 373.671875 74.890625 C 373.671875 74.890625 373.953125 69.433594 368.046875 65.609375 C 357.832031 58.3125 334.949219 61.511719 334.523438 78.011719 Z M 342.640625 95.734375 C 343.054688 93.632813 344.867188 89.921875 352.4375 89.203125 C 352.4375 89.203125 359.75 88.980469 363.238281 87.179688 C 363.238281 87.179688 364.476563 98.65625 359.863281 101.46875 C 359.863281 101.46875 358.175781 102.953125 354.277344 103.308594 C 349.390625 103.753906 341.363281 102.242188 342.640625 95.734375 Z M 342.640625 95.734375 "/>
<path style=" stroke:none;fill-rule:evenodd;fill:rgb(0%,63.867188%,70.506287%);fill-opacity:1;" d="M 437.347656 78.011719 C 437.347656 78.011719 439.035156 69.320313 447.640625 69.714844 C 447.640625 69.714844 457.878906 69.378906 457.597656 78.011719 C 457.597656 78.011719 456.023438 83.15625 448.484375 82.875 C 448.484375 82.875 433.746094 83.214844 429.976563 87.882813 C 429.976563 87.882813 425.589844 90.808594 425.929688 97.390625 C 425.929688 97.390625 425.253906 112.015625 441.398438 111.058594 C 441.398438 111.058594 451.464844 111.171875 457.316406 105.488281 C 458.796875 104.996094 457.792969 115.160156 471.828125 110.214844 L 471.828125 103.238281 C 470.234375 103.621094 468.714844 103.585938 467.273438 103.070313 C 467.273438 103.070313 466.429688 102.507813 466.539063 100.484375 L 466.820313 74.890625 C 466.820313 74.890625 467.101563 69.433594 461.195313 65.609375 C 450.980469 58.3125 428.101563 61.511719 427.671875 78.011719 Z M 435.792969 95.734375 C 436.203125 93.632813 438.015625 89.921875 445.589844 89.203125 C 445.589844 89.203125 452.902344 88.980469 456.386719 87.179688 C 456.386719 87.179688 457.625 98.65625 453.011719 101.46875 C 453.011719 101.46875 451.324219 102.953125 447.425781 103.308594 C 442.542969 103.753906 434.511719 102.242188 435.792969 95.734375 Z M 435.792969 95.734375 "/>
</g>
</svg>
